<svg width="43" height="11" fill="none" xmlns="http://www.w3.org/2000/svg"><path fill-rule="evenodd" clip-rule="evenodd" d="M.855.572C.902.612 2.3 1.729 3.962 3.055a414.582 414.582 0 0 1 3.034 2.432C7.002 5.5 5.613 6.62 3.909 7.98a408.986 408.986 0 0 0-3.116 2.5c-.011.016 3.545.024 8.257.02l8.277-.008 2.899-2.325 2.899-2.325h5.5l5.501-.002-.313.184c-1.038.61-1.45 1.391-1.258 2.38.148.756.528 1.265 1.401 1.872.158.11.304.2.324.2.02 0 .084-.076.142-.168.38-.6 1.065-1.358 1.725-1.91 1.463-1.225 3.578-2.187 6.092-2.77.292-.067.531-.13.531-.14 0-.008-.161-.05-.359-.093a26.419 26.419 0 0 1-2.624-.765c-2.392-.888-4.138-2.121-5.246-3.705-.15-.216-.294-.392-.318-.392-.077 0-.673.454-.946.72-.523.51-.745 1.058-.738 1.822.003.417.027.558.127.767.216.448.61.828 1.233 1.19l.234.137H23.104L20.19 2.834 17.276.5H.77l.085.072Zm6.186 1.95 2.44 1.982.818.664-1.101-.002-1.102-.001L6.09 3.546l-2.456-1.98-.448-.363h2.234l1.622 1.32Zm4.358.512a451.27 451.27 0 0 0 2.447 1.982l.197.152-1.11-.002-1.108-.001-2.008-1.62-2.455-1.98-.447-.362H9.15l2.25 1.83Zm3.96.125a298.781 298.781 0 0 1 2.45 1.982c.01.015-.483.027-1.097.027h-1.116L13.15 3.2a204.927 204.927 0 0 1-2.445-1.982c0-.009.5-.016 1.111-.016h1.111L15.36 3.16Zm3.744.01a206.976 206.976 0 0 1 2.444 1.983c0 .009-.5.016-1.11.016h-1.112l-2.43-1.956a299.032 299.032 0 0 1-2.45-1.982c-.011-.015.483-.027 1.097-.027h1.117l2.444 1.967ZM10.27 5.912c-.024.022-1.139.914-2.478 1.982L5.356 9.835H4.271c-.853 0-1.076-.008-1.043-.04.024-.022 1.139-.914 2.478-1.982l2.435-1.942h1.085c.853 0 1.076.009 1.043.04Zm3.729 0c-.024.022-1.138.914-2.476 1.982L9.088 9.835H6.909l.106-.09c.059-.05 1.175-.942 2.481-1.982l2.375-1.892h1.085c.851 0 1.075.009 1.042.04Zm3.726.05c-.058.05-1.176.943-2.483 1.983l-2.377 1.891H10.653l1.24-.983 2.499-1.982 1.259-.999h2.18l-.107.09Zm3.728 0c-.058.05-1.174.942-2.48 1.983L16.6 9.835h-2.216l2.478-1.98 2.478-1.98 1.11-.002 1.11-.002-.107.09Z" fill="#fff"/></svg>