<svg xmlns="http://www.w3.org/2000/svg" fill="none" viewBox="0 0 417 105"><path d="M149.323 50.61c-2.666-.087-5.28-.153-7.84-.2l-7.7-.14c-1.91 0-3.77 0-5.59.07-1.82.07-3.52 0-5.25.07.013-4.508.276-9.011.79-13.49a65.108 65.108 0 0 1 2.38-11c5.309.652 10.652.986 16 1a57 57 0 0 0 11.93-1.16 36.253 36.253 0 0 0 9.34-3.35 17.92 17.92 0 0 0 6-5.2 11.116 11.116 0 0 0 2.18-6.7 8.07 8.07 0 0 0-1.5-5 10.421 10.421 0 0 0-3.81-3.21 16.999 16.999 0 0 0-5.05-1.71 24.36 24.36 0 0 0-5-.55 46.509 46.509 0 0 0-10.15 1.16 38.275 38.275 0 0 0-9.68 3.63 31.317 31.317 0 0 0-8.18 6.36 26.412 26.412 0 0 0-5.46 9.12 286.704 286.704 0 0 1-15.61-2.66 943.136 943.136 0 0 1-15.88-3.29l-15.51-3.44a534.067 534.067 0 0 0-14.51-3.08c-4.633-.913-8.93-1.643-12.89-2.19a74 74 0 0 0-10.69-.89 59.05 59.05 0 0 0-14.91 1.74 37.93 37.93 0 0 0-11.86 5.06 26.07 26.07 0 0 0-8 8.14 20.89 20.89 0 0 0-2.87 10.94 18.26 18.26 0 0 0 1 6.23 25.003 25.003 0 0 0 2.52 5.19 27.098 27.098 0 0 0 3.4 4 26.232 26.232 0 0 0 3.48 2.87 2.43 2.43 0 0 0 1.43.48 2.49 2.49 0 0 0 1.71-.68 2.52 2.52 0 0 0 .81-1.92 3.001 3.001 0 0 0-.27-1.23 2 2 0 0 0-.89-1c-.09 0-.56-.39-1.43-1a20.558 20.558 0 0 1-2.79-2.81 22.656 22.656 0 0 1-2.73-4.37 14.23 14.23 0 0 1-1.16-5.82 15.83 15.83 0 0 1 2.55-8.66 21.43 21.43 0 0 1 6.81-6.57 34.381 34.381 0 0 1 10.29-4 54.302 54.302 0 0 1 12.82-1.44c3.648.026 7.29.3 10.9.82 4 .547 8.27 1.277 12.81 2.19 4.54.913 9.267 1.94 14.18 3.08 4.947 1.087 9.967 2.203 15.06 3.35a728.325 728.325 0 0 0 15.34 3.28c5.127 1 10.17 1.867 15.13 2.6-2 6.893-3.046 15.373-3.14 25.44-4.82.18-9.273.41-13.36.69-4.086.28-7.63.53-10.63.75-3 .233-5.363.437-7.09.61l-2.59.28a2.66 2.66 0 0 0-1.63.89 2.202 2.202 0 0 0-.68 1.64 2.35 2.35 0 0 0 .88 2 3.5 3.5 0 0 0 2.05.62c.414 0 1.504-.07 3.27-.21 1.77-.18 4.09-.39 7-.61 2.91-.22 6.29-.53 10.15-.76 3.86-.23 8.09-.5 12.68-.68v1.71c.05.55.07 1.09.07 1.64 0 13-3.666 22.827-11 29.48-7.333 6.653-18.103 9.987-32.31 10a62.44 62.44 0 0 1-13.77-1.36 50.924 50.924 0 0 1-10.49-3.56 34.436 34.436 0 0 1-7.7-5 43.601 43.601 0 0 1-5.32-5.61 32.227 32.227 0 0 1-3.34-5.54 44.488 44.488 0 0 1-1.84-4.58 2.51 2.51 0 0 0-1-1.3 2.26 2.26 0 0 0-1.43-.48 2.47 2.47 0 0 0-1.91.82 2.43 2.43 0 0 0-.75 1.78v.41c.056.11.102.223.14.34a42.534 42.534 0 0 0 2.11 5.27 40.242 40.242 0 0 0 3.82 6.29 45.518 45.518 0 0 0 5.92 6.43 42 42 0 0 0 8.59 5.67 51.538 51.538 0 0 0 11.66 4 66.801 66.801 0 0 0 15.26 1.57 66.437 66.437 0 0 0 20.68-2.95 40.301 40.301 0 0 0 15.13-8.62 36.358 36.358 0 0 0 9.41-14 52.86 52.86 0 0 0 3.2-19c0-.64 0-1.26-.07-1.85V55.6c1.77 0 3.57-.06 5.39-.06 1.82 0 3.68-.07 5.58-.07 2.5 0 5.024.043 7.57.13 2.59.1 5.18.14 7.77.14a2.559 2.559 0 0 0 1.77-.68 2.29 2.29 0 0 0 .75-1.78 2.587 2.587 0 0 0-.68-1.78 2.255 2.255 0 0 0-1.77-.89Zm-15.68-37.48a29.76 29.76 0 0 1 7.36-4.85 32.489 32.489 0 0 1 7.91-2.46 43.448 43.448 0 0 1 7.29-.69c1.047.006 2.092.076 3.13.21 1.145.123 2.269.399 3.34.82a6.647 6.647 0 0 1 2.59 1.57 3.281 3.281 0 0 1 1.09 2.6 6.906 6.906 0 0 1-1.84 4.65 14.793 14.793 0 0 1-5.11 3.62 32.827 32.827 0 0 1-7.7 2.4 53 53 0 0 1-9.68.82 129.57 129.57 0 0 1-14-.82 23.844 23.844 0 0 1 5.62-7.87Z"/><path fill="#DACAAA" d="M158.593 53.76a5.91 5.91 0 0 0 4.36-1.78 6.094 6.094 0 0 0 1.84-4.45 5.896 5.896 0 0 0-.48-2.39 5.516 5.516 0 0 0-1.36-2 5.498 5.498 0 0 0-2-1.37 5.85 5.85 0 0 0-2.38-.48 6.35 6.35 0 0 0-2.46.48 6.25 6.25 0 0 0-2 1.37 5.944 5.944 0 0 0-1.3 2 5.913 5.913 0 0 0-.48 2.39 6.15 6.15 0 0 0 .44 2.405c.305.765.761 1.46 1.34 2.045a6.112 6.112 0 0 0 4.48 1.78Zm-1.64-7.84a2.137 2.137 0 0 1 1.64-.75 2.13 2.13 0 0 1 1.63.75 2.166 2.166 0 0 1 .556 2.547c-.13.285-.319.538-.556.743a2.237 2.237 0 0 1-1.63.68 2.24 2.24 0 0 1-1.64-.68 2.29 2.29 0 0 1-.68-1.65 2.278 2.278 0 0 1 .68-1.64ZM298.433 78.52a2.398 2.398 0 0 0-2.38 1.64c-.666 1.46-1.486 3.17-2.46 5.13a38.903 38.903 0 0 1-3.47 5.6 24 24 0 0 1-4.16 4.45 7.47 7.47 0 0 1-4.7 1.78c-4.233 0-7.46-5.267-9.68-15.8 1.227-2.96 2.59-6.493 4.09-10.6 1.5-4.107 2.91-8.577 4.23-13.41a149.464 149.464 0 0 0 3.4-15.18 93.384 93.384 0 0 0 1.37-15.87 44.079 44.079 0 0 0-.48-6.77 19.63 19.63 0 0 0-1.5-5.26 8.676 8.676 0 0 0-2.52-3.42 6 6 0 0 0-3.82-1.23 6.532 6.532 0 0 0-4.5 1.78 15.118 15.118 0 0 0-3.47 4.71 39.342 39.342 0 0 0-2.46 7 75.106 75.106 0 0 0-1.63 8.41c-.413 2.92-.71 5.92-.89 9-.18 3-.27 6-.27 8.82a148.386 148.386 0 0 0 1 17.58c.667 5.24 1.374 9.867 2.12 13.88a83.67 83.67 0 0 1-3.75 8.28 26.867 26.867 0 0 1-3.12 4.88 8.35 8.35 0 0 1-2.59 2.33 5.788 5.788 0 0 1-2.31.55 4.78 4.78 0 0 1-4.09-1.92 9.062 9.062 0 0 1-1.37-5.33 18.924 18.924 0 0 1 1.23-7.18 15.64 15.64 0 0 1 3.2-4.93 14.285 14.285 0 0 1 4.3-3 16.548 16.548 0 0 1 4.36-1.3 2.397 2.397 0 0 0 1.62-.92 2.623 2.623 0 0 0 .62-1.71 2.275 2.275 0 0 0-.75-1.77 2.387 2.387 0 0 0-1.77-.76c-2.207.03-4.377.57-6.34 1.58a19.622 19.622 0 0 0-5.76 4.44 21.67 21.67 0 0 0-3.24 4.67 2.661 2.661 0 0 0-.57.26 2.706 2.706 0 0 0-1 1.16c-.5 1.18-1.273 2.73-2.32 4.65a40.159 40.159 0 0 1-3.61 5.68 27.73 27.73 0 0 1-4.5 4.78 7.9 7.9 0 0 1-5 2 4.002 4.002 0 0 1-2.32-.62 4.426 4.426 0 0 1-1.36-1.78 10.91 10.91 0 0 1-.68-2.66c-.09-1-.14-2.06-.14-3.15 0-.87 0-1.78.07-2.74.07-.96.16-2 .21-2.94.05-.94.15-1.84.2-2.66.05-.82.14-1.6.14-2.19a11.432 11.432 0 0 0-1.71-6.43 5.825 5.825 0 0 0-5.17-2.61 8.11 8.11 0 0 0-3.82 1.09 13.283 13.283 0 0 0-4 3.42 69.945 69.945 0 0 0-3.82 5.2c-1.18 1.83-2.32 3.67-3.41 5.54-1.09 1.87-2.11 3.65-3.07 5.47-.96 1.82-1.79 3.42-2.52 4.93.14-1.33.28-3 .41-4.93.13-1.93.37-3.92.55-5.88.18-1.96.32-3.87.41-5.61.09-1.74.2-3 .2-3.83a14.933 14.933 0 0 0-.34-3.21 9.671 9.671 0 0 0-.95-2.87 5.098 5.098 0 0 0-1.64-2.06 4.32 4.32 0 0 0-2.66-.82c-1.77 0-3.56 1.17-5.38 3.49a49.29 49.29 0 0 0-5.72 10.74c0 .1-.06.2-.09.3-1.34 2.65-2.69 5.09-4.07 7.29a47.75 47.75 0 0 1-4.36 5.88 21.156 21.156 0 0 1-4.16 3.83 7.139 7.139 0 0 1-3.95 1.37 8.282 8.282 0 0 1-2.46-.41 5.913 5.913 0 0 1-2.38-1.64 10 10 0 0 1-1.84-3.42 20.713 20.713 0 0 1-.68-5.88c0-1.78 0-3.72.13-5.82s.27-4.15.41-6c.14-1.85.32-3.56.41-4.93.09-1.37.2-2.19.2-2.46a2.53 2.53 0 0 0-.68-1.78 2.108 2.108 0 0 0-1.7-.82 2.588 2.588 0 0 0-1.91.75 2.89 2.89 0 0 0-.82 1.64 159.105 159.105 0 0 0-1.29 19.62 26.578 26.578 0 0 0 .75 6.43 16.183 16.183 0 0 0 2.38 5.13 12.648 12.648 0 0 0 3.95 3.49 10.916 10.916 0 0 0 5.39 1.3 10.42 10.42 0 0 0 4.7-1.16 21.294 21.294 0 0 0 4.43-3 34.686 34.686 0 0 0 4-4.24c1.28-1.6 2.43-3.2 3.48-4.79 1.05-1.59 2-3.15 2.79-4.65.79-1.5 1.5-2.78 2-3.83a.534.534 0 0 1 0-.08v-.06a50.62 50.62 0 0 1 4.13-8.23c1-1.6 1.77-2.47 2.18-2.6.27.22.45.86.54 1.91.09 1.05.14 2.14.14 3.28 0 .87-.05 1.94-.14 3.22-.09 1.28-.2 2.67-.34 4.17s-.27 2.94-.41 4.45c-.14 1.51-.27 2.91-.41 4.24-.14 1.33-.25 2.39-.34 3.35-.09.96-.13 1.52-.13 1.84a4.762 4.762 0 0 0 1.16 3.42 4.433 4.433 0 0 0 3.2 1.17 4.637 4.637 0 0 0 2.79-1 9.801 9.801 0 0 0 2.76-3.91c.45-1 1.07-2.26 1.84-3.76s1.68-3.17 2.59-4.86c.91-1.69 1.95-3.37 3-5.06 1.05-1.69 2.13-3.28 3.13-4.65a24.464 24.464 0 0 1 2.93-3.28 4.061 4.061 0 0 1 2.51-1.3c.36 0 .77.27 1.22.82.558.873.798 1.911.68 2.94 0 .87 0 1.78-.13 2.74-.13.96-.17 1.87-.31 2.87-.14 1-.18 1.87-.27 2.73-.09.86-.07 1.65-.07 2.33a35.21 35.21 0 0 0 .34 4.79c.279 1.51.799 2.965 1.54 4.31a9.094 9.094 0 0 0 3 3.14 9.416 9.416 0 0 0 5 1.16c1.815.002 3.6-.467 5.18-1.36a20.894 20.894 0 0 0 4.63-3.42 30.964 30.964 0 0 0 3.95-4.52c.23-.32.44-.63.65-.94.118 1.068.36 2.118.72 3.13a11.348 11.348 0 0 0 2.31 3.83 7.883 7.883 0 0 0 3.34 2.12c1.283.464 2.637.697 4 .69a10.356 10.356 0 0 0 7.22-3.15c2.234-2.1 4.437-5.473 6.61-10.12 1.594 4.88 3.48 8.39 5.66 10.53a10.896 10.896 0 0 0 7.73 3.15 9.648 9.648 0 0 0 4.63-1.17 20.882 20.882 0 0 0 4.23-3.07 27.59 27.59 0 0 0 3.62-4.16c1.09-1.55 2.06-3.05 2.93-4.51a43.121 43.121 0 0 0 2.25-4.17c.63-1.32 1.11-2.37 1.43-3.15.145-.313.213-.656.2-1a2.565 2.565 0 0 0-.75-1.77 2.384 2.384 0 0 0-1.84-.8Zm-29.7-17.31c-.32-4-.48-8-.48-12 0-4.2.207-8.35.62-12.45a99.93 99.93 0 0 1 1.77-11.08 37.204 37.204 0 0 1 2.52-7.93c1-2 2.067-3 3.2-3a1.833 1.833 0 0 1 1.63 1.17c.476.926.813 1.916 1 2.94.28 1.212.44 2.447.48 3.69.09 1.33.13 2.56.13 3.7a87.612 87.612 0 0 1-.87 11.78 114.106 114.106 0 0 1-2.12 11.69c-.86 3.88-1.88 7.687-3.06 11.42a198.735 198.735 0 0 1-3.74 10.78c-.41-3.12-.77-6.69-1.08-10.71ZM415.383 79.34a2.067 2.067 0 0 0-1.77-.82c-.82 0-1.45.52-1.91 1.57a67.344 67.344 0 0 1-3.54 6.91 38.47 38.47 0 0 1-4.7 6.29 22.496 22.496 0 0 1-5.87 4.58 14.67 14.67 0 0 1-7.15 1.78h-.71a3.091 3.091 0 0 1-.68-.07 10.207 10.207 0 0 0 3.81-4.38 13.288 13.288 0 0 0 1.16-5.47 12.231 12.231 0 0 0-.82-4.37 40.238 40.238 0 0 0-2-4.66c-.82-1.68-1.753-3.527-2.8-5.54-1-2-2.09-4.3-3.13-6.9.22-1.1.41-2 .54-2.74.139-.722.21-1.455.21-2.19a5.683 5.683 0 0 0-1-3.35 2.782 2.782 0 0 0-2.45-1.37 3.003 3.003 0 0 0-2.66 1.44 6.182 6.182 0 0 0-.95 3.62c0 .758.067 1.514.2 2.26.18.901.407 1.793.68 2.67a40.273 40.273 0 0 1-1.43 5.4 37.313 37.313 0 0 1-2.22 5.21 2.793 2.793 0 0 0-.64.88c-.36.82-.82 1.82-1.36 3-.54 1.18-1.21 2.35-2 3.62a43.978 43.978 0 0 1-2.45 3.83 22.673 22.673 0 0 1-2.87 3.35 15.786 15.786 0 0 1-3.27 2.47 7.43 7.43 0 0 1-3.47.89 5.217 5.217 0 0 1-4-1.58 10.484 10.484 0 0 1-2.24-3.9 22.782 22.782 0 0 1-1-4.58 22.378 22.378 0 0 1-.07-3.76l.89-11.35a2.999 2.999 0 0 0-.68-1.92 2.22 2.22 0 0 0-1.84-.89 2.53 2.53 0 0 0-1.77.69 2.699 2.699 0 0 0-.89 1.71l-1 11.76a18.842 18.842 0 0 1-1.5 6 14.762 14.762 0 0 1-2.73 4.17 10.71 10.71 0 0 1-3.13 2.46c-.864.46-1.821.72-2.8.76a5.5 5.5 0 0 1-4.56-2.06 10.187 10.187 0 0 1-1.57-6.15 28.89 28.89 0 0 1 .61-6.29 30.92 30.92 0 0 1 1.44-4.86c.428-1.135.95-2.232 1.56-3.28.5-.87.87-1.51 1.09-1.92.136-.263.25-.538.34-.82.136-.252.208-.534.21-.82a2.45 2.45 0 0 0-.75-1.78 2.227 2.227 0 0 0-1.77-.82 2.999 2.999 0 0 0-1.09.21 2.233 2.233 0 0 0-.82.61l-1 1.3a21.18 21.18 0 0 0-2 3.83 39.995 39.995 0 0 0-2 6.16 36.045 36.045 0 0 0-.89 8.48c-.024 1.874.228 3.74.75 5.54a12.692 12.692 0 0 0 2.32 4.24 10.6 10.6 0 0 0 14.51 1.37 20.424 20.424 0 0 0 5.59-6.16 13.831 13.831 0 0 0 3.95 6.57 9.998 9.998 0 0 0 6.68 2.25 11.77 11.77 0 0 0 5.45-1.29 22.462 22.462 0 0 0 4.78-3.42 35.125 35.125 0 0 0 4-4.59 49.66 49.66 0 0 0 3-4.65 42.331 42.331 0 0 0 2-4c.41-.88.71-1.54.91-2 .301-.397.568-.819.8-1.26.49-1 .93-2 1.29-2.87.36-.87.75-1.73 1-2.46.55 1.32 1.14 2.6 1.77 3.83.63 1.23 1.3 2.35 1.84 3.48a21.632 21.632 0 0 1 1.44 3.42 11.28 11.28 0 0 1 .54 3.42 7.193 7.193 0 0 1-.34 2 6.894 6.894 0 0 1-1 2.12 5.996 5.996 0 0 1-1.72 1.67 5.118 5.118 0 0 1-2.73.68 5.223 5.223 0 0 1-1.64-.27 9.019 9.019 0 0 1-1.36-.62c-.36-.27-.68-.5-.95-.68a2.252 2.252 0 0 1-.48-.48 2.54 2.54 0 0 0-1.855-.75 2.555 2.555 0 0 0-1.825.82 2.428 2.428 0 0 0-.75 1.78c.005.464.148.917.41 1.3a13.641 13.641 0 0 0 6.34 5.26 21.852 21.852 0 0 0 8.52 1.64 20.37 20.37 0 0 0 7-1.16 23.81 23.81 0 0 0 5.86-2.94 29.73 29.73 0 0 0 4.9-4.31 39.53 39.53 0 0 0 3.82-4.85 42.59 42.59 0 0 0 2.86-4.86c.82-1.59 1.48-3 2-4.24.134-.316.202-.656.2-1a2.679 2.679 0 0 0-.67-1.8Z"/></svg>
