<svg xmlns="http://www.w3.org/2000/svg" fill="none" viewBox="0 0 96 48"><path fill-rule="evenodd" d="M95.423 1.149c.317.333.577 1.467.577 2.521 0 5.104-6.765 10.407-15.376 12.052-2.458.47-4.311 1.218-6.81 2.752-1.887 1.158-4.366 2.592-5.509 3.186l-2.077 1.079 3.693.632c5.103.873 6.461 1.389 8.316 3.16 1.96 1.87 2.009 2.724.259 4.495-1.194 1.207-1.672 1.365-4.137 1.365-4.37 0-7.377-1.379-10.544-4.835l-2.664-2.908-6.818 2.365-6.819 2.366 2.958 1.721c4.463 2.597 6.294 4.526 6.294 6.631 0 3.435-1.46 4.295-4.852 2.862-1.99-.842-5.89-4.498-7.752-7.268-.777-1.156-1.602-2.23-1.832-2.389-.377-.258-12.744 2.18-13.152 2.593-.093.093.538.406 1.4.695 3.576 1.193 7.144 6.777 6.66 10.42-.137 1.038-.565 2.206-.95 2.597-.628.635-.931.622-2.877-.13-3.033-1.172-5.217-3.334-8.828-8.734L21.47 33.72l-10.162.299C.635 34.33-.725 34.147.268 32.52c.528-.864.726-.89 14.828-1.91 2.849-.205 5.287-.482 5.418-.615.131-.132.86-2.634 1.617-5.56.76-2.925 2.191-7.03 3.183-9.121 2.545-5.367 4.45-6.91 6.263-5.075.955.966.97 5.919.027 8.624-.816 2.34-3.974 7.595-5.671 9.436-.649.703-1.065 1.396-.924 1.537.365.37 13.49-1.94 14.676-2.582.968-.524.983-.697.675-7.391-.31-6.724-.291-6.915.933-9.99 1.38-3.465 4.455-7.373 5.801-7.373 1.566 0 2.666 1.786 2.99 4.853.41 3.861-.316 7.453-2.542 12.588-1.02 2.353-1.854 4.567-1.854 4.92 0 1.051 3.903.399 8.308-1.388l3.924-1.591.275-6.072c.29-6.397.891-8.824 2.98-12.026 1.317-2.018 2.884-2.312 4.36-.817 1.848 1.868 1.043 9.19-1.583 14.422l-1.261 2.512 1.307-.316c1.925-.465 7.7-3.287 9.959-4.865 1.507-1.054 2.16-1.937 2.803-3.794 1.204-3.478 3.496-5.79 7.96-8.027C87.745 1.382 89.21.934 91.697.762c2.212-.153 3.32-.038 3.725.387Z" clip-rule="evenodd"/></svg>
