<svg width="1338" height="116" viewBox="0 0 1338 116" fill="none" xmlns="http://www.w3.org/2000/svg">
<path d="M50.2331 0L0.17596 28.8962L0 28.9982V87.0018L50.2331 116L100.287 87.1038L100.463 87.0018V28.9982L50.2331 0ZM50.5851 1.01705L99.407 29.2024L95.1241 31.6658L50.5851 5.95097V1.01705ZM94.7651 32.2852V83.7254L50.2331 109.416L5.69409 83.7254V32.2852L50.2331 6.57035L94.7651 32.2852ZM49.8812 1.02409V5.95097L5.34217 31.6764L1.05928 29.2129L49.8812 1.02409ZM0.703841 29.8217L4.99025 32.2852V83.7254L0.703841 86.1888V29.8217ZM5.34217 84.3237L49.8812 110.038V114.983L1.05928 86.7977L5.34217 84.3237ZM50.5851 114.983V110.038L95.117 84.3237L99.3999 86.7871L50.5851 114.983ZM99.7589 86.1888L95.469 83.7254V32.2852L99.7518 29.8217L99.7589 86.1888Z" fill="#DACAAA"/>
<path d="M162.696 0L112.639 28.8962L112.463 28.9982V87.0018L162.696 116L212.749 87.1038L212.925 87.0018V28.9982L162.696 0ZM163.048 1.01705L211.87 29.2024L207.587 31.6658L163.048 5.95097V1.01705ZM207.228 32.2852V83.7254L162.696 109.416L118.157 83.7254V32.2852L162.696 6.57035L207.228 32.2852ZM162.344 1.02409V5.95097L117.805 31.6764L113.522 29.2129L162.344 1.02409ZM113.167 29.8217L117.453 32.2852V83.7254L113.167 86.1888V29.8217ZM117.805 84.3237L162.344 110.038V114.983L113.522 86.7977L117.805 84.3237ZM163.048 114.983V110.038L207.58 84.3237L211.863 86.7871L163.048 114.983ZM212.222 86.1888L207.932 83.7254V32.2852L212.215 29.8217L212.222 86.1888Z" fill="#DACAAA"/>
<path d="M275.159 0L225.101 28.8962L224.925 28.9982V87.0018L275.159 116L325.212 87.1038L325.388 87.0018V28.9982L275.159 0ZM275.51 1.01705L324.332 29.2024L320.05 31.6658L275.51 5.95097V1.01705ZM319.691 32.2852V83.7254L275.159 109.416L230.62 83.7254V32.2852L275.159 6.57035L319.691 32.2852ZM274.807 1.02409V5.95097L230.268 31.6764L225.985 29.2129L274.807 1.02409ZM225.629 29.8217L229.916 32.2852V83.7254L225.629 86.1888V29.8217ZM230.268 84.3237L274.807 110.038V114.983L225.985 86.7977L230.268 84.3237ZM275.51 114.983V110.038L320.042 84.3237L324.325 86.7871L275.51 114.983ZM324.684 86.1888L320.394 83.7254V32.2852L324.677 29.8217L324.684 86.1888Z" fill="#DACAAA"/>
<path d="M387.621 0L337.564 28.8962L337.388 28.9982V87.0018L387.621 116L437.675 87.1038L437.851 87.0018V28.9982L387.621 0ZM387.973 1.01705L436.795 29.2024L432.512 31.6658L387.973 5.95097V1.01705ZM432.153 32.2852V83.7254L387.621 109.416L343.082 83.7254V32.2852L387.621 6.57035L432.153 32.2852ZM387.269 1.02409V5.95097L342.73 31.6764L338.447 29.2129L387.269 1.02409ZM338.092 29.8217L342.378 32.2852V83.7254L338.092 86.1888V29.8217ZM342.73 84.3237L387.269 110.038V114.983L338.447 86.7977L342.73 84.3237ZM387.973 114.983V110.038L432.505 84.3237L436.788 86.7871L387.973 114.983ZM437.147 86.1888L432.857 83.7254V32.2852L437.14 29.8217L437.147 86.1888Z" fill="#DACAAA"/>
<path d="M500.084 0L450.027 28.8962L449.851 28.9982V87.0018L500.084 116L550.138 87.1038L550.314 87.0018V28.9982L500.084 0ZM500.436 1.01705L549.258 29.2024L544.975 31.6658L500.436 5.95097V1.01705ZM544.616 32.2852V83.7254L500.084 109.416L455.545 83.7254V32.2852L500.084 6.57035L544.616 32.2852ZM499.732 1.02409V5.95097L455.193 31.6764L450.91 29.2129L499.732 1.02409ZM450.555 29.8217L454.841 32.2852V83.7254L450.555 86.1888V29.8217ZM455.193 84.3237L499.732 110.038V114.983L450.91 86.7977L455.193 84.3237ZM500.436 114.983V110.038L544.968 84.3237L549.251 86.7871L500.436 114.983ZM549.61 86.1888L545.32 83.7254V32.2852L549.603 29.8217L549.61 86.1888Z" fill="#DACAAA"/>
<path d="M612.547 0L562.49 28.8962L562.314 28.9982V87.0018L612.547 116L662.6 87.1038L662.776 87.0018V28.9982L612.547 0ZM612.899 1.01705L661.721 29.2024L657.438 31.6658L612.899 5.95097V1.01705ZM657.079 32.2852V83.7254L612.547 109.416L568.008 83.7254V32.2852L612.547 6.57035L657.079 32.2852ZM612.195 1.02409V5.95097L567.656 31.6764L563.373 29.2129L612.195 1.02409ZM563.017 29.8217L567.304 32.2852V83.7254L563.017 86.1888V29.8217ZM567.656 84.3237L612.195 110.038V114.983L563.373 86.7977L567.656 84.3237ZM612.899 114.983V110.038L657.431 84.3237L661.714 86.7871L612.899 114.983ZM662.072 86.1888L657.783 83.7254V32.2852L662.065 29.8217L662.072 86.1888Z" fill="#DACAAA"/>
<path d="M725.009 0L674.952 28.8962L674.776 28.9982V87.0018L725.009 116L775.063 87.1038L775.239 87.0018V28.9982L725.009 0ZM725.361 1.01705L774.183 29.2024L769.9 31.6658L725.361 5.95097V1.01705ZM769.541 32.2852V83.7254L725.009 109.416L680.47 83.7254V32.2852L725.009 6.57035L769.541 32.2852ZM724.658 1.02409V5.95097L680.118 31.6764L675.836 29.2129L724.658 1.02409ZM675.48 29.8217L679.767 32.2852V83.7254L675.48 86.1888V29.8217ZM680.118 84.3237L724.658 110.038V114.983L675.836 86.7977L680.118 84.3237ZM725.361 114.983V110.038L769.893 84.3237L774.176 86.7871L725.361 114.983ZM774.535 86.1888L770.245 83.7254V32.2852L774.528 29.8217L774.535 86.1888Z" fill="#DACAAA"/>
<path d="M837.472 0L787.415 28.8962L787.239 28.9982V87.0018L837.472 116L887.526 87.1038L887.702 87.0018V28.9982L837.472 0ZM837.824 1.01705L886.646 29.2024L882.363 31.6658L837.824 5.95097V1.01705ZM882.004 32.2852V83.7254L837.472 109.416L792.933 83.7254V32.2852L837.472 6.57035L882.004 32.2852ZM837.12 1.02409V5.95097L792.581 31.6764L788.298 29.2129L837.12 1.02409ZM787.943 29.8217L792.229 32.2852V83.7254L787.943 86.1888V29.8217ZM792.581 84.3237L837.12 110.038V114.983L788.298 86.7977L792.581 84.3237ZM837.824 114.983V110.038L882.356 84.3237L886.639 86.7871L837.824 114.983ZM886.998 86.1888L882.708 83.7254V32.2852L886.991 29.8217L886.998 86.1888Z" fill="#DACAAA"/>
<path d="M949.935 0L899.878 28.8962L899.702 28.9982V87.0018L949.935 116L999.988 87.1038L1000.16 87.0018V28.9982L949.935 0ZM950.287 1.01705L999.109 29.2024L994.826 31.6658L950.287 5.95097V1.01705ZM994.467 32.2852V83.7254L949.935 109.416L905.396 83.7254V32.2852L949.935 6.57035L994.467 32.2852ZM949.583 1.02409V5.95097L905.044 31.6764L900.761 29.2129L949.583 1.02409ZM900.406 29.8217L904.692 32.2852V83.7254L900.406 86.1888V29.8217ZM905.044 84.3237L949.583 110.038V114.983L900.761 86.7977L905.044 84.3237ZM950.287 114.983V110.038L994.819 84.3237L999.102 86.7871L950.287 114.983ZM999.461 86.1888L995.171 83.7254V32.2852L999.454 29.8217L999.461 86.1888Z" fill="#DACAAA"/>
<path d="M1062.4 0L1012.34 28.8962L1012.16 28.9982V87.0018L1062.4 116L1112.45 87.1038L1112.63 87.0018V28.9982L1062.4 0ZM1062.75 1.01705L1111.57 29.2024L1107.29 31.6658L1062.75 5.95097V1.01705ZM1106.93 32.2852V83.7254L1062.4 109.416L1017.86 83.7254V32.2852L1062.4 6.57035L1106.93 32.2852ZM1062.05 1.02409V5.95097L1017.51 31.6764L1013.22 29.2129L1062.05 1.02409ZM1012.87 29.8217L1017.15 32.2852V83.7254L1012.87 86.1888V29.8217ZM1017.51 84.3237L1062.05 110.038V114.983L1013.22 86.7977L1017.51 84.3237ZM1062.75 114.983V110.038L1107.28 84.3237L1111.56 86.7871L1062.75 114.983ZM1111.92 86.1888L1107.63 83.7254V32.2852L1111.92 29.8217L1111.92 86.1888Z" fill="#DACAAA"/>
<path d="M1174.86 0L1124.8 28.8962L1124.63 28.9982V87.0018L1174.86 116L1224.91 87.1038L1225.09 87.0018V28.9982L1174.86 0ZM1175.21 1.01705L1224.03 29.2024L1219.75 31.6658L1175.21 5.95097V1.01705ZM1219.39 32.2852V83.7254L1174.86 109.416L1130.32 83.7254V32.2852L1174.86 6.57035L1219.39 32.2852ZM1174.51 1.02409V5.95097L1129.97 31.6764L1125.69 29.2129L1174.51 1.02409ZM1125.33 29.8217L1129.62 32.2852V83.7254L1125.33 86.1888V29.8217ZM1129.97 84.3237L1174.51 110.038V114.983L1125.69 86.7977L1129.97 84.3237ZM1175.21 114.983V110.038L1219.74 84.3237L1224.03 86.7871L1175.21 114.983ZM1224.39 86.1888L1220.1 83.7254V32.2852L1224.38 29.8217L1224.39 86.1888Z" fill="#DACAAA"/>
<path d="M1287.32 0L1237.27 28.8962L1237.09 28.9982V87.0018L1287.32 116L1337.38 87.1038L1337.55 87.0018V28.9982L1287.32 0ZM1287.68 1.01705L1336.5 29.2024L1332.21 31.6658L1287.68 5.95097V1.01705ZM1331.86 32.2852V83.7254L1287.32 109.416L1242.78 83.7254V32.2852L1287.32 6.57035L1331.86 32.2852ZM1286.97 1.02409V5.95097L1242.43 31.6764L1238.15 29.2129L1286.97 1.02409ZM1237.79 29.8217L1242.08 32.2852V83.7254L1237.79 86.1888V29.8217ZM1242.43 84.3237L1286.97 110.038V114.983L1238.15 86.7977L1242.43 84.3237ZM1287.68 114.983V110.038L1332.21 84.3237L1336.49 86.7871L1287.68 114.983ZM1336.85 86.1888L1332.56 83.7254V32.2852L1336.84 29.8217L1336.85 86.1888Z" fill="#DACAAA"/>
</svg>
