<svg width="607" height="165" fill="none" xmlns="http://www.w3.org/2000/svg"><path d="M71.37 0 .25 41.055 0 41.2v82.41l71.37 41.2 71.115-41.055.25-.145V41.2L71.37 0Zm.5 1.445 69.365 40.045-6.085 3.5L71.87 8.455v-7.01Zm62.77 44.425v73.085l-63.27 36.5-63.28-36.5V45.87L71.37 9.335l63.27 36.535ZM70.87 1.455v7L7.59 45.005l-6.085-3.5L70.87 1.455ZM1 42.37l6.09 3.5v73.085l-6.09 3.5V42.37Zm6.59 77.435 63.28 36.535v7.025L1.505 123.32l6.085-3.515Zm64.28 43.56v-7.025l63.27-36.535 6.085 3.5-69.355 40.06Zm69.865-40.91-6.095-3.5V45.87l6.085-3.5.01 80.085ZM226.105 0l-71.12 41.055-.25.145v82.41l71.37 41.2 71.115-41.055.25-.145V41.2L226.105 0Zm.5 1.445L295.97 41.49l-6.085 3.5-63.28-36.535v-7.01Zm62.77 44.425v73.085l-63.27 36.5-63.28-36.5V45.87l63.28-36.535 63.27 36.535Zm-63.77-44.415v7l-63.28 36.55-6.085-3.5 69.365-40.05Zm-69.87 40.915 6.09 3.5v73.085l-6.09 3.5V42.37Zm6.59 77.435 63.28 36.535v7.025L156.24 123.32l6.085-3.515Zm64.28 43.56v-7.025l63.27-36.535 6.085 3.5-69.355 40.06Zm69.865-40.91-6.095-3.5V45.87l6.085-3.5.01 80.085ZM380.84 0l-71.12 41.055-.25.145v82.41l71.37 41.2 71.115-41.055.25-.145V41.2L380.84 0Zm.5 1.445 69.365 40.045-6.085 3.5-63.28-36.535v-7.01Zm62.77 44.425v73.085l-63.27 36.5-63.28-36.5V45.87l63.28-36.535 63.27 36.535ZM380.34 1.455v7l-63.28 36.55-6.085-3.5 69.365-40.05ZM310.47 42.37l6.09 3.5v73.085l-6.09 3.5V42.37Zm6.59 77.435 63.28 36.535v7.025l-69.365-40.045 6.085-3.515Zm64.28 43.56v-7.025l63.27-36.535 6.085 3.5-69.355 40.06Zm69.865-40.91-6.095-3.5V45.87l6.085-3.5.01 80.085ZM535.575 0l-71.12 41.055-.25.145v82.41l71.37 41.2 71.115-41.055.25-.145V41.2L535.575 0Zm.5 1.445L605.44 41.49l-6.085 3.5-63.28-36.535v-7.01Zm62.77 44.425v73.085l-63.27 36.5-63.28-36.5V45.87l63.28-36.535 63.27 36.535Zm-63.77-44.415v7l-63.28 36.55-6.085-3.5 69.365-40.05Zm-69.87 40.915 6.09 3.5v73.085l-6.09 3.5V42.37Zm6.59 77.435 63.28 36.535v7.025L465.71 123.32l6.085-3.515Zm64.28 43.56v-7.025l63.27-36.535 6.085 3.5-69.355 40.06Zm69.865-40.91-6.095-3.5V45.87l6.085-3.5.01 80.085Z" fill="#DACAAA"/></svg>